Coordinates
version=1
nRows=9
nColumns=24
inDegrees=yes

Units are S.I. units (second, meters, Newtons, ...)
Angles are in degrees.

endheader
time	pelvis_tilt	pelvis_list	pelvis_rotation	pelvis_tx	pelvis_ty	pelvis_tz	hip_flexion_r	hip_adduction_r	hip_rotation_r	knee_angle_r	ankle_angle_r	subtalar_angle_r	mtp_angle_r	hip_flexion_l	hip_adduction_l	hip_rotation_l	knee_angle_l	ankle_angle_l	subtalar_angle_l	mtp_angle_l	lumbar_extension	lumbar_bending	lumbar_rotation
      0.68366667	     -0.94676400	      1.48478209	      4.64348234	     -0.35211319	      1.08169715	      0.28964702	      8.24968028	      0.83053472	     -3.48515560	    -16.88254621	      9.44190035	     -4.59058344	      6.02846170	     17.86072301	     -1.65875894	     -1.61573396	    -69.22020715	      8.42766952	      5.16138996	      4.45537762	    -11.77424191	      3.76926493	      1.04565775
      0.68783333	     -0.90793459	      1.61632200	      4.48277030	     -0.34695661	      1.08253060	      0.29020383	      7.73782662	      0.75796719	     -3.34378724	    -16.51961767	      9.49432660	     -4.53029008	      5.99519546	     18.30017896	     -1.55140542	     -1.85582976	    -68.75247620	      8.73429382	      5.53156106	      4.53576261	    -11.88233296	      3.55428695	      1.37662856
      0.69200000	     -0.93360481	      1.77223483	      4.31403167	     -0.34176177	      1.08321055	      0.29075437	      7.31111367	      0.64581471	     -3.22821978	    -16.19755150	      9.55317428	     -4.44024737	      5.98660710	     18.79088709	     -1.41625137	     -2.12223563	    -68.23445181	      9.01010328	      5.83320765	      4.56759032	    -11.88072026	      3.31359320	      1.43954257
      0.69616667	     -0.89949047	      1.89873182	      4.14676595	     -0.33660990	      1.08395079	      0.29130657	      6.80906567	      0.57206228	     -3.09267789	    -15.84014634	      9.62729667	     -4.36937151	      5.96509170	     19.21220795	     -1.32462301	     -2.38079732	    -67.68168791	      9.29606088	      6.20630320	      4.63065584	    -11.96168239	      3.10948043	      1.68992045
      0.70033333	     -0.90748146	      2.05478754	      3.96787227	     -0.33143500	      1.08459990	      0.29186936	      6.36376592	      0.45726299	     -2.97120467	    -15.50935176	      9.65906608	     -4.27861833	      5.95545343	     19.65770819	     -1.20104094	     -2.66464645	    -67.07410476	      9.54852937	      6.47995977	      4.66349830	    -11.98685674	      2.86507912	      1.77279242
      0.70450000	     -0.88337421	      2.18414680	      3.78850344	     -0.32629358	      1.08524068	      0.29242631	      5.87785749	      0.37417621	     -2.82788732	    -15.15623103	      9.71428044	     -4.21247647	      5.92618473	     20.06313402	     -1.11402373	     -2.94245432	    -66.43636238	      9.80626148	      6.80519222	      4.74352126	    -12.06008950	      2.65531176	      2.07159802
      0.70866667	     -0.89695865	      2.32332938	      3.60871215	     -0.32113970	      1.08576915	      0.29297506	      5.44385870	      0.27238223	     -2.70433340	    -14.83027161	      9.79710765	     -4.13262814	      5.91080280	     20.49615721	     -1.01668745	     -3.22924022	    -65.75747018	     10.02641406	      7.10532815	      4.79207066	    -12.06973621	      2.43841664	      2.19125913
      0.71283333	     -0.91259814	      2.45502259	      3.43416270	     -0.31599798	      1.08625383	      0.29351079	      5.01108722	      0.17432065	     -2.59617505	    -14.49642665	      9.83358075	     -4.03028055	      5.90243000	     20.92315582	     -0.92757297	     -3.51219532	    -65.04507512	     10.23710469	      7.34984104	      4.82080664	    -12.08578921	      2.21045329	      2.27363754
      0.71700000	     -0.88249142	      2.56570948	      3.25840774	     -0.31088102	      1.08676128	      0.29403706	      4.52682191	      0.10147441	     -2.47165577	    -14.15521968	      9.91897468	     -3.96194315	      5.88151891	     21.28963730	     -0.86815409	     -3.78738763	    -64.29718096	     10.44073184	      7.64736313	      4.87893626	    -12.15965383	      2.02811972	      2.53451578
